<?xml version="1.0" encoding="UTF-8"?>
<svg width="488px" height="488px" viewBox="0 0 488 488" version="1.1" xmlns="http://www.w3.org/2000/svg" xmlns:xlink="http://www.w3.org/1999/xlink">
    <!-- Generator: Sketch 51.3 (57544) - http://www.bohemiancoding.com/sketch -->
    <title>Combined Shape</title>
    <desc>Created with Sketch.</desc>
    <defs></defs>
    <g id="Page-1" stroke="none" stroke-width="1" fill="none" fill-rule="evenodd">
        <path d="M244,488 C109.242521,488 0,378.757479 0,244 C0,109.242521 109.242521,0 244,0 C378.757479,0 488,109.242521 488,244 C488,378.757479 378.757479,488 244,488 Z M240.5,244 C286.063492,244 323,208.406638 323,164.5 C323,120.593362 286.063492,85 240.5,85 C194.936508,85 158,120.593362 158,164.5 C158,208.406638 194.936508,244 240.5,244 Z M103.316406,383.113281 C107.070425,402.128496 147.464844,403.628906 242.592952,403.628906 C337.72106,403.628906 379.343229,406.096726 382.207031,383.113281 C392.164062,303.203125 319.8125,270.984375 287.996094,270.984375 C256.179687,270.984375 257.402344,270.984375 199.457031,270.984375 C141.511719,270.984375 93.5481765,333.63431 103.316406,383.113281 Z" id="Combined-Shape" fill="#FFFFFF" fill-rule="nonzero"></path>
    </g>
</svg>